<svg version="1" xmlns="http://www.w3.org/2000/svg" width="853.333" height="853.333" viewBox="0 0 640.000000 640.000000"><path d="M163 101.3c-10.3 2.9-19.3 9.5-24.6 17.8-5.2 8.3-7 22-4.3 33.3 4.3 18.3 16.5 32.2 52.5 60.1 9.5 7.4 17 14.8 21.1 20.7l2.5 3.8 3-4.5c3.6-5.5 14.2-15.2 30.8-28.2 32.1-25.3 44.1-43.1 43.5-64.8-.6-18.6-12.2-33.3-30.2-38-19.7-5.2-39.5 4.5-45.7 22.4l-1.3 3.6-2.7-6.1c-3.4-7.6-10.2-14.4-17.8-17.9-6.9-3.2-19.8-4.2-26.8-2.2zM413 196.2c-7.1.8-13.7 1.7-16 2.2-3.5.7-8.6 1.7-10 2-9.1 1.6-33.3 10.6-43 15.9-8.1 4.4-19 11.1-18.9 11.6 0 .3 4.3 4.1 9.5 8.4l9.5 7.8 7.2-3.9c4-2.1 10.1-5.1 13.7-6.7 3.6-1.5 7.4-3.1 8.5-3.6 5.2-2.4 24.7-7.3 33.5-8.5 17.8-2.3 35.1-1.9 51.5 1.2 4.4.8 9.1 1.7 10.5 2 12.6 2.3 36.5 13 50.5 22.4 40 27 66.3 69.9 71.3 116 .8 8 .8 31.6 0 39-6.2 52.7-40.4 101-88.5 124.9-28 13.9-55.9 19.2-87.1 16.6-19.5-1.6-40.2-7.6-59.1-17.2l-12.4-6.4-2.6 2.4c-1.4 1.3-4.2 3.8-6.1 5.5-1.9 1.8-5 4.2-6.7 5.5-1.8 1.2-3.3 2.5-3.3 2.8 0 .7 17.3 11 23.5 13.8 17.1 8 34.1 13.5 48 15.7 2.8.4 5.7.9 6.5 1 13 2.5 39.9 2.4 55-.2 1.9-.3 4.9-.8 6.5-1 13.7-2.3 34.7-9.4 49.8-17 6.3-3.2 22.3-12.9 23.7-14.4.3-.3 3.9-3 8-6.2 9.8-7.3 27.4-25.9 35.5-37.3 42.9-60.3 46.4-139.5 9.1-202.9-26.8-45.6-72.7-78.2-124.2-88.5-16.5-3.2-39.2-4.5-53.4-2.9z"/><path d="M162.9 201.4c-.2.3-1.6.7-2.9 1-5.3 1-21 7-31.9 12.3-18.6 8.9-34 20-49.7 35.7-29.2 29.2-45.6 61.7-52.9 104.5-2.3 13.8-2.3 40.5 0 54.6 1.5 8.8 3.8 19.1 4.6 20.7.5 1 .7 1.8.5 1.8-1.1 0 6.8 21 11.5 30.7 4.1 8.6 14 25.6 15.9 27.3.3.3 2.5 3.2 5 6.4 26.7 35.4 68 60.5 113.5 69.2 19.8 3.7 50.2 3.7 67.1-.1 1.2-.3 3.8-.7 5.8-1.1 2.1-.3 7.4-1.7 11.9-3 4.5-1.4 8.9-2.7 9.7-2.9 3.3-.8 13.7-5.3 24.5-10.7 32.6-16.4 62.1-45.5 79.7-78.8 5.4-10.1 13.4-30.6 15.3-39 .1-.3.7-3.2 1.5-6.5 1.8-7.9 1.8-8.2 2.5-13.5.3-2.5.8-5.9 1.1-7.5 2.1-10.8.4-45.1-3-60-8.1-35.6-25-66.4-50.5-92.2-17.4-17.6-39.4-32.1-63.6-41.8-4.9-2-9.7-3.8-10.6-4-.8-.2-3.8-1-6.6-1.8l-5.1-1.5-12.1 9.6c-6.7 5.2-11.8 9.9-11.4 10.3.5.4 3 1 5.7 1.4 22.1 2.9 51.3 16 73.2 33 7.7 5.9 24 23.3 30.6 32.6 10.4 14.5 20.4 35.8 24.8 52.9 4.6 17.6 6.5 41.1 4.6 56.6-.4 2.7-.8 6.2-1 7.9-3.3 26.1-17 57.4-34.4 78.5-12.1 14.7-32.5 31.7-48.2 40.2-7.5 4.1-22 10.4-24 10.6-.3 0-2.3.7-4.5 1.6-4.3 1.6-13.9 4.1-19.5 5-1.9.3-4.6.8-6 1.1-7.6 1.4-27.8 2-38.5 1-7.4-.7-18.2-2.5-24.5-4.2-3-.8-6.2-1.6-7-1.8-4.3-1.1-16.3-5.6-22.5-8.5-44.8-21.1-77.7-61.7-89.1-109.7-3.1-13.3-3.9-20.8-3.9-38.3 0-16.9.9-24.7 4.6-39.2 11.3-45 42.9-84 84.6-104.6 5.4-2.7 11.4-5.4 13.3-6.1 1.9-.7 4.4-1.7 5.5-2.1 5.2-2.2 19.3-5.7 29.5-7.4 1.4-.3 2.7-.5 2.9-.5.4-.1-24.7-20.1-25.2-20.1-.2 0-.6.2-.8.4z"/><path d="M291.4 257.2c-17.1 18.1-32 44.4-39.8 70.1-6 19.8-8.4 36.6-8 57.6.1 6.9.5 15.3.8 18.6 2.1 18.9 9 42.3 17.7 60.1 4.8 9.8 16 27.9 20.5 33.1 1.1 1.1 3.9 4.6 6.4 7.6 2.5 3 5.3 6 6.3 6.6 2.2 1.4 3.5.7 14-7.6l6.8-5.4-6.9-7.7c-9.2-10.4-16.3-20.4-22.2-31.5-10.3-19.4-15.1-35-18.6-60.7-.7-5.4-.7-28.3 0-32.5.3-1.7.8-5 1.1-7.5 4.3-30.4 19.4-62.1 40.5-85l6-6.5-3.3-2.9c-4.5-3.9-14.8-11.6-15.6-11.6-.4 0-3 2.4-5.7 5.2z"/></svg>